<?xml version="1.0" ?><svg enable-background="new 0 0 224.3735 224" id="github" version="1.1" viewBox="0 0 224.3735 224" xml:space="preserve" xmlns="http://www.w3.org/2000/svg" xmlns:xlink="http://www.w3.org/1999/xlink"><g><path d="M20.3735,8h-4V4c0-2.209-1.791-4-4-4s-4,1.791-4,4v4h-4c-2.209,0-4,1.791-4,4s1.791,4,4,4h4v4   c0,2.209,1.791,4,4,4s4-1.791,4-4v-4h4c2.209,0,4-1.791,4-4S22.5824,8,20.3735,8z" fill="#FAE6F5"/><path d="M60.3735,8h-4V4c0-2.209-1.791-4-4-4s-4,1.791-4,4v4h-4c-2.209,0-4,1.791-4,4s1.791,4,4,4h4v4   c0,2.209,1.791,4,4,4s4-1.791,4-4v-4h4c2.209,0,4-1.791,4-4S62.5824,8,60.3735,8z" fill="#FAE6F5"/><path d="M100.3735,8h-4V4c0-2.209-1.791-4-4-4s-4,1.791-4,4v4h-4c-2.209,0-4,1.791-4,4s1.791,4,4,4h4v4   c0,2.209,1.791,4,4,4s4-1.791,4-4v-4h4c2.209,0,4-1.791,4-4S102.5824,8,100.3735,8z" fill="#FAE6F5"/><path d="M140.3735,8h-4V4c0-2.209-1.791-4-4-4s-4,1.791-4,4v4h-4c-2.209,0-4,1.791-4,4s1.791,4,4,4h4v4   c0,2.209,1.791,4,4,4s4-1.791,4-4v-4h4c2.209,0,4-1.791,4-4S142.5824,8,140.3735,8z" fill="#FAE6F5"/><path d="M180.3735,8h-4V4c0-2.209-1.791-4-4-4s-4,1.791-4,4v4h-4c-2.209,0-4,1.791-4,4s1.791,4,4,4h4v4   c0,2.209,1.791,4,4,4s4-1.791,4-4v-4h4c2.209,0,4-1.791,4-4S182.5824,8,180.3735,8z" fill="#FAE6F5"/><path d="M204.3735,16h4v4c0,2.209,1.791,4,4,4s4-1.791,4-4v-4h4c2.209,0,4-1.791,4-4s-1.791-4-4-4h-4V4   c0-2.209-1.791-4-4-4s-4,1.791-4,4v4h-4c-2.209,0-4,1.791-4,4S202.1645,16,204.3735,16z" fill="#FAE6F5"/><path d="M20.3735,48h-4v-4c0-2.209-1.791-4-4-4s-4,1.791-4,4v4h-4c-2.209,0-4,1.791-4,4s1.791,4,4,4h4v4   c0,2.209,1.791,4,4,4s4-1.791,4-4v-4h4c2.209,0,4-1.791,4-4S22.5824,48,20.3735,48z" fill="#FAE6F5"/><path d="M60.3735,48h-4v-4c0-2.209-1.791-4-4-4s-4,1.791-4,4v4h-4c-2.209,0-4,1.791-4,4s1.791,4,4,4h4v4   c0,2.209,1.791,4,4,4s4-1.791,4-4v-4h4c2.209,0,4-1.791,4-4S62.5824,48,60.3735,48z" fill="#FAE6F5"/><path d="M100.3735,48h-4v-4c0-2.209-1.791-4-4-4s-4,1.791-4,4v4h-4c-2.209,0-4,1.791-4,4s1.791,4,4,4h4v4   c0,2.209,1.791,4,4,4s4-1.791,4-4v-4h4c2.209,0,4-1.791,4-4S102.5824,48,100.3735,48z" fill="#FAE6F5"/><path d="M140.3735,48h-4v-4c0-2.209-1.791-4-4-4s-4,1.791-4,4v4h-4c-2.209,0-4,1.791-4,4s1.791,4,4,4h4v4   c0,2.209,1.791,4,4,4s4-1.791,4-4v-4h4c2.209,0,4-1.791,4-4S142.5824,48,140.3735,48z" fill="#FAE6F5"/><path d="M180.3735,48h-4v-4c0-2.209-1.791-4-4-4s-4,1.791-4,4v4h-4c-2.209,0-4,1.791-4,4s1.791,4,4,4h4v4   c0,2.209,1.791,4,4,4s4-1.791,4-4v-4h4c2.209,0,4-1.791,4-4S182.5824,48,180.3735,48z" fill="#FAE6F5"/><path d="M220.3735,48h-4v-4c0-2.209-1.791-4-4-4s-4,1.791-4,4v4h-4c-2.209,0-4,1.791-4,4s1.791,4,4,4h4v4   c0,2.209,1.791,4,4,4s4-1.791,4-4v-4h4c2.209,0,4-1.791,4-4S222.5824,48,220.3735,48z" fill="#FAE6F5"/><path d="M20.3735,88h-4v-4c0-2.209-1.791-4-4-4s-4,1.791-4,4v4h-4c-2.209,0-4,1.791-4,4s1.791,4,4,4h4v4   c0,2.209,1.791,4,4,4s4-1.791,4-4v-4h4c2.209,0,4-1.791,4-4S22.5824,88,20.3735,88z" fill="#FAE6F5"/><path d="M60.3735,88h-4v-4c0-2.209-1.791-4-4-4s-4,1.791-4,4v4h-4c-2.209,0-4,1.791-4,4s1.791,4,4,4h4v4   c0,2.209,1.791,4,4,4s4-1.791,4-4v-4h4c2.209,0,4-1.791,4-4S62.5824,88,60.3735,88z" fill="#FAE6F5"/><path d="M100.3735,88h-4v-4c0-2.209-1.791-4-4-4s-4,1.791-4,4v4h-4c-2.209,0-4,1.791-4,4s1.791,4,4,4h4v4   c0,2.209,1.791,4,4,4s4-1.791,4-4v-4h4c2.209,0,4-1.791,4-4S102.5824,88,100.3735,88z" fill="#FAE6F5"/><path d="M140.3735,88h-4v-4c0-2.209-1.791-4-4-4s-4,1.791-4,4v4h-4c-2.209,0-4,1.791-4,4s1.791,4,4,4h4v4   c0,2.209,1.791,4,4,4s4-1.791,4-4v-4h4c2.209,0,4-1.791,4-4S142.5824,88,140.3735,88z" fill="#FAE6F5"/><path d="M180.3735,88h-4v-4c0-2.209-1.791-4-4-4s-4,1.791-4,4v4h-4c-2.209,0-4,1.791-4,4s1.791,4,4,4h4v4   c0,2.209,1.791,4,4,4s4-1.791,4-4v-4h4c2.209,0,4-1.791,4-4S182.5824,88,180.3735,88z" fill="#FAE6F5"/><path d="M220.3735,88h-4v-4c0-2.209-1.791-4-4-4s-4,1.791-4,4v4h-4c-2.209,0-4,1.791-4,4s1.791,4,4,4h4v4   c0,2.209,1.791,4,4,4s4-1.791,4-4v-4h4c2.209,0,4-1.791,4-4S222.5824,88,220.3735,88z" fill="#FAE6F5"/><path d="M20.3735,128h-4v-4c0-2.209-1.791-4-4-4s-4,1.791-4,4v4h-4c-2.209,0-4,1.791-4,4s1.791,4,4,4h4v4   c0,2.209,1.791,4,4,4s4-1.791,4-4v-4h4c2.209,0,4-1.791,4-4S22.5824,128,20.3735,128z" fill="#FAE6F5"/><path d="M60.3735,128h-4v-4c0-2.209-1.791-4-4-4s-4,1.791-4,4v4h-4c-2.209,0-4,1.791-4,4s1.791,4,4,4h4v4   c0,2.209,1.791,4,4,4s4-1.791,4-4v-4h4c2.209,0,4-1.791,4-4S62.5824,128,60.3735,128z" fill="#FAE6F5"/><path d="M100.3735,128h-4v-4c0-2.209-1.791-4-4-4s-4,1.791-4,4v4h-4c-2.209,0-4,1.791-4,4s1.791,4,4,4h4v4   c0,2.209,1.791,4,4,4s4-1.791,4-4v-4h4c2.209,0,4-1.791,4-4S102.5824,128,100.3735,128z" fill="#FAE6F5"/><path d="M140.3735,128h-4v-4c0-2.209-1.791-4-4-4s-4,1.791-4,4v4h-4c-2.209,0-4,1.791-4,4s1.791,4,4,4h4v4   c0,2.209,1.791,4,4,4s4-1.791,4-4v-4h4c2.209,0,4-1.791,4-4S142.5824,128,140.3735,128z" fill="#FAE6F5"/><path d="M180.3735,128h-4v-4c0-2.209-1.791-4-4-4s-4,1.791-4,4v4h-4c-2.209,0-4,1.791-4,4s1.791,4,4,4h4v4   c0,2.209,1.791,4,4,4s4-1.791,4-4v-4h4c2.209,0,4-1.791,4-4S182.5824,128,180.3735,128z" fill="#FAE6F5"/><path d="M220.3735,128h-4v-4c0-2.209-1.791-4-4-4s-4,1.791-4,4v4h-4c-2.209,0-4,1.791-4,4s1.791,4,4,4h4v4   c0,2.209,1.791,4,4,4s4-1.791,4-4v-4h4c2.209,0,4-1.791,4-4S222.5824,128,220.3735,128z" fill="#FAE6F5"/><path d="M20.3735,168h-4v-4c0-2.209-1.791-4-4-4s-4,1.791-4,4v4h-4c-2.209,0-4,1.791-4,4s1.791,4,4,4h4v4   c0,2.209,1.791,4,4,4s4-1.791,4-4v-4h4c2.209,0,4-1.791,4-4S22.5824,168,20.3735,168z" fill="#FAE6F5"/><path d="M60.3735,168h-4v-4c0-2.209-1.791-4-4-4s-4,1.791-4,4v4h-4c-2.209,0-4,1.791-4,4s1.791,4,4,4h4v4   c0,2.209,1.791,4,4,4s4-1.791,4-4v-4h4c2.209,0,4-1.791,4-4S62.5824,168,60.3735,168z" fill="#FAE6F5"/><path d="M100.3735,168h-4v-4c0-2.209-1.791-4-4-4s-4,1.791-4,4v4h-4c-2.209,0-4,1.791-4,4s1.791,4,4,4h4v4   c0,2.209,1.791,4,4,4s4-1.791,4-4v-4h4c2.209,0,4-1.791,4-4S102.5824,168,100.3735,168z" fill="#FAE6F5"/><path d="M140.3735,168h-4v-4c0-2.209-1.791-4-4-4s-4,1.791-4,4v4h-4c-2.209,0-4,1.791-4,4s1.791,4,4,4h4v4   c0,2.209,1.791,4,4,4s4-1.791,4-4v-4h4c2.209,0,4-1.791,4-4S142.5824,168,140.3735,168z" fill="#FAE6F5"/><path d="M180.3735,168h-4v-4c0-2.209-1.791-4-4-4s-4,1.791-4,4v4h-4c-2.209,0-4,1.791-4,4s1.791,4,4,4h4v4   c0,2.209,1.791,4,4,4s4-1.791,4-4v-4h4c2.209,0,4-1.791,4-4S182.5824,168,180.3735,168z" fill="#FAE6F5"/><path d="M220.3735,168h-4v-4c0-2.209-1.791-4-4-4s-4,1.791-4,4v4h-4c-2.209,0-4,1.791-4,4s1.791,4,4,4h4v4   c0,2.209,1.791,4,4,4s4-1.791,4-4v-4h4c2.209,0,4-1.791,4-4S222.5824,168,220.3735,168z" fill="#FAE6F5"/><path d="M20.3735,208h-4v-4c0-2.209-1.791-4-4-4s-4,1.791-4,4v4h-4c-2.209,0-4,1.791-4,4s1.791,4,4,4h4v4   c0,2.209,1.791,4,4,4s4-1.791,4-4v-4h4c2.209,0,4-1.791,4-4S22.5824,208,20.3735,208z" fill="#FAE6F5"/><path d="M60.3735,208h-4v-4c0-2.209-1.791-4-4-4s-4,1.791-4,4v4h-4c-2.209,0-4,1.791-4,4s1.791,4,4,4h4v4   c0,2.209,1.791,4,4,4s4-1.791,4-4v-4h4c2.209,0,4-1.791,4-4S62.5824,208,60.3735,208z" fill="#FAE6F5"/><path d="M100.3735,208h-4v-4c0-2.209-1.791-4-4-4s-4,1.791-4,4v4h-4c-2.209,0-4,1.791-4,4s1.791,4,4,4h4v4   c0,2.209,1.791,4,4,4s4-1.791,4-4v-4h4c2.209,0,4-1.791,4-4S102.5824,208,100.3735,208z" fill="#FAE6F5"/><path d="M140.3735,208h-4v-4c0-2.209-1.791-4-4-4s-4,1.791-4,4v4h-4c-2.209,0-4,1.791-4,4s1.791,4,4,4h4v4   c0,2.209,1.791,4,4,4s4-1.791,4-4v-4h4c2.209,0,4-1.791,4-4S142.5824,208,140.3735,208z" fill="#FAE6F5"/><path d="M180.3735,208h-4v-4c0-2.209-1.791-4-4-4s-4,1.791-4,4v4h-4c-2.209,0-4,1.791-4,4s1.791,4,4,4h4v4   c0,2.209,1.791,4,4,4s4-1.791,4-4v-4h4c2.209,0,4-1.791,4-4S182.5824,208,180.3735,208z" fill="#FAE6F5"/><path d="M220.3735,208h-4v-4c0-2.209-1.791-4-4-4s-4,1.791-4,4v4h-4c-2.209,0-4,1.791-4,4s1.791,4,4,4h4v4   c0,2.209,1.791,4,4,4s4-1.791,4-4v-4h4c2.209,0,4-1.791,4-4S222.5824,208,220.3735,208z" fill="#FAE6F5"/></g><g><path d="M207.4632,81.1055c-2.3809-3.2773-3.4668-5.2031-3.127-8.7051c0.709-7.3711-0.3008-14.791-1.2754-21.9648   l-0.0645-0.4727c-1.3047-9.6172-3.8164-18.793-7.4668-27.2754l-1.2988-3.0176l-5.9121,1.2598   c-8.2051,1.7246-16.6914,3.5098-24.4277,7.9746c-5.1367,2.9668-10.248,6.1309-15.1895,9.1875   c-3.3086,2.0488-6.6152,4.0957-9.9434,6.0938c-0.1816,0.1094-0.5391,0.1953-0.6406,0.1953c0,0,0,0-0.002,0   c-17.8867-3.125-36.4687-3.1543-55.2363-0.0938c-0.2305,0.041-0.9883-0.0879-1.5898-0.4453   c-2.0625-1.2363-4.0742-2.5625-6.0859-3.8887c-2.332-1.5391-4.666-3.0742-7.0664-4.4805   C56.6897,28.752,44.0413,22.2695,29.1253,20.3652l-2.916-0.373l-1.5566,3.373c-0.293,0.6172-0.5391,1.1465-0.7461,1.6992   c-4.2812,11.5371-6.8613,23.6328-7.6953,36.3398c-0.291,4.4043-0.5918,8.959,0.0566,13.5078   c0.2148,1.5059,0.0371,1.8105-0.5527,2.5488c-5.3867,6.7168-9.2402,13.7422-11.7793,21.4707   c-4.2676,12.9844-5.041,27.3789-2.4355,45.2949c2.1602,14.9883,5.834,25.9238,11.9102,35.4531   c12.7715,20.0312,32.4883,31.3164,58.6055,33.541c13.0508,1.1113,26.2949,1.2793,39.2812,1.2793   c2.791,0,5.5723-0.0078,8.3359-0.0156c3.6445-0.0117,7.293-0.0215,10.9277-0.0137c16.7207,0.0098,30.0547-2.168,42.1797-6.9141   c21.584-8.4453,35.9355-24.1738,42.6523-46.75c3.7441-12.5781,5.4199-25.957,4.9785-39.7656   C219.8792,105.6562,215.5374,92.2207,207.4632,81.1055z" fill="#643458"/><path d="M207.7249,158.5254c-6.0625,20.373-18.459,33.9746-37.9004,41.582   c-11.1582,4.3711-23.4805,6.4395-39.248,6.3633c-3.6504-0.0078-7.3066,0.002-10.9648,0.0137   c-15.4453,0.043-31.4102,0.0879-46.916-1.2363c-23.834-2.0293-41.0195-11.7988-52.5391-29.8691   c-5.4355-8.5254-8.748-18.4844-10.7383-32.2988c-2.4551-16.8789-1.8008-29.7246,2.1191-41.6504   c2.2344-6.8047,5.6426-13.0078,10.4219-18.9668c2.0898-2.6094,2.7344-5.123,2.2285-8.6797   c-0.5312-3.7246-0.2578-7.8555,0.0332-12.2441c0.7344-11.2285,3.043-22.2578,6.8555-32.7871   c12.2598,2.168,23.0898,7.7949,33.0137,13.6211c2.2812,1.3379,4.4941,2.7988,6.709,4.2578   c2.1094,1.3906,4.2188,2.7793,6.3887,4.0781c2.1602,1.2871,4.7695,1.8379,6.9863,1.4727   c17.8711-2.918,35.5586-2.8926,52.5859,0.082c1.9609,0.3301,4.2988-0.1328,6.1113-1.2168   c3.3633-2.0195,6.7012-4.0859,10.0391-6.1504c4.9668-3.0742,9.9336-6.1484,14.9824-9.0645   c6.4766-3.7383,13.7852-5.3301,21.5254-6.959c2.6992,6.9609,4.5977,14.4023,5.6523,22.166l0.0645,0.4727   c0.9121,6.7227,1.8574,13.6758,1.2363,20.1211c-0.6152,6.375,1.8359,10.3438,4.6211,14.1738   c7.2129,9.9336,10.9375,21.543,11.3828,35.4883C212.7893,134.2461,211.2249,146.7715,207.7249,158.5254z" fill="#FDCA8D"/><path d="M156.301,106.5c-0.1973,0-0.3984,0.002-0.5977,0.0039c-3.7051,0.0645-7.4121,0.2148-11.1191,0.3652   c-3.375,0.1367-6.75,0.2734-10.123,0.3418l-5.8594,0.123c-10.1738,0.2129-20.7129,0.4297-31.0039,0.3887   c-4.6973-0.0195-9.3945-0.1973-14.0898-0.373c-6.3906-0.2422-12.9902-0.4961-19.543-0.3301   c-9.0898,0.2207-16.7402,3.125-22.7383,8.6367h-0.002c-9.9629,9.1543-14.082,21.2988-12.5898,37.127   c2.166,22.9727,11.4395,34.7188,32.0078,40.5391c17.291,4.8926,34.6582,5.3301,49.2891,5.125l4.8711,0.0254   c1.6445,0.0137,3.2871,0.0273,4.9316,0.0273c2.0273,0,4.0566-0.0195,6.082-0.084c14.3789-0.459,26.9824-2.6094,38.5293-6.5742   c12.6777-4.3516,21.1152-12.6621,25.0762-24.6992c3.0234-9.2012,3.9121-17.916,2.7148-26.6465   C190.1878,126.2891,177.7991,106.5,156.301,106.5z" fill="#643458"/><path d="M181.8225,164.6426c-3.1816,9.666-9.748,16.0879-20.0742,19.6328   c-10.7812,3.7012-22.6172,5.7109-36.1855,6.1445c-3.5645,0.1133-7.1289,0.0781-10.6934,0.0547l-4.9961-0.0273   c-14.1016,0.2012-30.75-0.209-47.0508-4.8242c-17.2676-4.8848-24.375-13.9902-26.2227-33.5898   c-1.2402-13.168,2.043-23.1406,10.0371-30.4863c4.5312-4.1602,10.4258-6.3574,17.5215-6.5312   c6.3027-0.1426,12.7832,0.0938,19.0488,0.3281c4.7852,0.1797,9.5723,0.3594,14.3555,0.3789   c10.4316,0.0469,20.9863-0.1758,31.207-0.3906l5.8535-0.1211c3.4297-0.0723,6.8574-0.2109,10.2852-0.3496   c3.6445-0.1465,7.2891-0.2949,10.9336-0.3574c0.1445-0.0039,0.2891-0.0039,0.4336-0.0039c16.5195,0,26.4277,16.0898,27.9355,27.082   C185.2385,149.0801,184.4573,156.625,181.8225,164.6426z" fill="#ED5175"/><path d="M74.1975,126.5c-11.0273,0-20,10.7656-20,24s8.9727,24,20,24s20-10.7656,20-24S85.2249,126.5,74.1975,126.5   z" fill="#643458"/><path d="M74.1975,166.5c-6.6172,0-12-7.1777-12-16s5.3828-16,12-16s12,7.1777,12,16S80.8147,166.5,74.1975,166.5z" fill="#FDCA8D"/><path d="M150.1975,126.5c-11.0273,0-20,10.7656-20,24s8.9727,24,20,24s20-10.7656,20-24   S161.2249,126.5,150.1975,126.5z" fill="#643458"/><path d="M150.1975,166.5c-6.6172,0-12-7.1777-12-16s5.3828-16,12-16s12,7.1777,12,16S156.8147,166.5,150.1975,166.5   z" fill="#FDCA8D"/></g></svg>